# xmcd
#
# Track frame offsets: 
#        150
#        23403
#        41870
#        61725
#        74721
#        89534
#        104334
#        119714
#        135153
#        152932
#        174327
#        182441
#
# Disc length: 2608 seconds
#
# Revision: 0
# Processed by: cddbd v1.5.2PL0 Copyright (c) Steve Scherf et al.
# Submitted via: ExactAudioCopy v0.99pb4
#
DISCID=9f0a2e0c
DTITLE=Various Artist - Heroes of The Blues
DYEAR=1900
DGENRE=Blues
TTITLE0=Reverand Gary Davis/How Happy I am
TTITLE1=Reverand Gary Davis/Samson and Delilah
TTITLE2=Furry Lewis/Natural Born Eastman
TTITLE3=Furry Lewis/Shake 'Em on Down
TTITLE4=Ma Rainey/Jealous Hearted Blues
TTITLE5=Ma Rainey/See See Ryder
TTITLE6=Skip James/Special Rider Blues
TTITLE7=Skip James/Hard Time Killing Floor Blues
TTITLE8=Mississippi Fred McDowell/Louise
TTITLE9=Mississippi Fred McDowell/61 Highway
TTITLE10=Son House/Am I Right or Wrong
TTITLE11=Son House/American Defense
EXTD=
EXTT0=
EXTT1=
EXTT2=
EXTT3=
EXTT4=
EXTT5=
EXTT6=
EXTT7=
EXTT8=
EXTT9=
EXTT10=
EXTT11=
PLAYORDER=
